<?xml  version="1.0" encoding="UTF-8"?>
<!DOCTYPE svg PUBLIC "-//W3C//DTD SVG 1.0//EN" "http://www.w3.org/TR/2001/REC-SVG-20010904/DTD/svg10.dtd" >
<svg xmlns="http://www.w3.org/2000/svg" >
<metadata>
<version>1.0</version>
<id><![CDATA[Proxima N W01SC Light Reg]]></id>
<vendor>Monotype Imaging Inc.</vendor>
<credits>
<name>Fonts.com WebFonts</name>
<URL>http://webfonts.fonts.com</URL>
<role>Home of the Web fonts</role>
</credits>
<license>
<URL>http://webfonts.fonts.com/Legal</URL>
</license>
<copyright><![CDATA[Copyright (c) Mark Simonson, 2005. All rights reserved.]]></copyright>
<trademark><![CDATA[Proxima Nova is a trademark of Mark Simonson.]]></trademark>
<licensee>
<name></name>
</licensee>
</metadata>
<defs >
<font horiz-adv-x="512" id="4710da8c-7a54-44d8-80ee-e5b0b9d2f258">
<font-face font-family="" panose-1="2 0 5 6 3 0 0 2 0 4" ascent="769" descent="-231" units-per-em="1000" alphabetic="0">
</font-face>
<missing-glyph horiz-adv-x="0" />

<glyph unicode="&#xA;" />
<glyph unicode="&#xD;" horiz-adv-x="0" />
<glyph unicode=" " horiz-adv-x="259" />
<glyph unicode="!" horiz-adv-x="176" d="M107 149H68L55 550H120L107 149ZM131 35Q131 17 119 4T88 -9Q70 -9 57 4T44 35Q44 52 57 65T88 78Q106 78 118 65T131 35Z"  />
<glyph unicode="&quot;" horiz-adv-x="317" d="M79 427Q72 483 68 529Q66 548 65 567T62 601T59 627T58 641Q58 656 68 666T94 677Q109 677 119 667T130 641Q130 638 129 628T127 602T123 567T119 529Q115 483 109 427H79ZM208 427Q201 483 197 529Q195 548 194 567T191 601T188 627T187 641Q187 656 197 666T223 677Q239 677 249 667T259 641Q259 638 258 628T256 602T252 567T248 529Q244 483 238 427H208Z"  />
<glyph unicode="#" horiz-adv-x="488" d="M453 353H362L310 201H404L392 162H297L243 0H198L253 162H156L103 0H57L112 162H24L36 201H125L177 353H86L97 390H189L243 550H288L233 390H329L384 550H429L374 390H464L453 353ZM221 353L169 201H265L316 353H221Z"  />
<glyph unicode="$" horiz-adv-x="499" d="M230 -11Q166 -7 118 16T39 76L73 115Q97 87 137 65T230 37V265Q197 273 166 283T111 309T71 350T56 412Q56 444 69 470T106 516T161 547T230 561V628H273V561Q328 556 370 536T443 483L411 445Q385 476 349 492T273 512V310Q307 301 340 290T399 260T441 215T458 147Q458 116 447 89T414 40T356 6T273 -11V-74H230V-11ZM400 146Q400 171 390 188T362 217T322 238T273 254V37Q307 40 331 50T371 75T393 108T400 146ZM113 413Q113 393 122 379T147 354T184 336T230 321V513Q179 509 146 482T113 413Z"  />
<glyph unicode="%" horiz-adv-x="582" d="M285 425Q285 396 276 372T249 329T208 301T155 290Q127 290 104 300T63 329T36 371T26 425Q26 454 35 479T62 522T103 551T155 562Q184 562 208 552T249 523T275 479T285 425ZM556 124Q556 95 547 70T520 27T479 -1T427 -12Q398 -12 375 -2T334 27T308 70T298 124Q298 153 307 178T334 221T374 250T427 261Q455 261 479 251T520 222T546 178T556 124ZM122 0H77L460 550H506L122 0ZM244 425Q244 467 220 497T155 528Q116 528 92 498T67 425Q67 383 91 354T155 324Q196 324 220 353T244 425ZM515 124Q515 167 491 196T427 226Q387 226 363 197T339 124Q339 82 363 53T427 23Q467 23 491 52T515 124Z"  />
<glyph unicode="&amp;" horiz-adv-x="552" d="M453 0Q435 15 417 32T379 67Q344 30 302 9T207 -12Q169 -12 137 -2T81 29T44 78T30 143Q30 176 40 201T69 245T110 280T158 308Q135 341 124 371T112 433Q112 461 123 484T152 525T196 552T251 562Q276 562 298 556T338 536T365 502T375 454Q375 423 362 400T328 358T281 326T226 297Q243 276 261 256T300 215Q320 192 339 173T376 135Q398 166 413 200T440 269L485 251Q469 209 451 173T409 104Q435 79 463 54T525 0H453ZM210 30Q250 30 284 48T346 97Q321 121 300 143T262 183Q239 208 219 230T182 274Q141 251 112 222T83 145Q83 95 118 63T210 30ZM161 432Q161 409 172 383T202 330Q227 342 249 354T289 380T317 412T328 453Q328 487 307 504T252 522Q212 522 187 496T161 432Z"  />
<glyph unicode="&apos;" horiz-adv-x="187" d="M79 427Q72 483 68 529Q66 548 65 567T62 601T59 627T58 641Q58 656 68 666T94 677Q109 677 119 667T130 641Q130 638 129 628T127 602T123 567T119 529Q115 483 109 427H79Z"  />
<glyph unicode="(" horiz-adv-x="227" d="M179 -199Q114 -101 80 10T45 243Q45 364 79 475T179 685L210 663Q186 615 167 568T133 470T112 364T104 243Q104 178 111 123T133 17T166 -80T210 -175L179 -199Z"  />
<glyph unicode=")" horiz-adv-x="227" d="M17 -175Q41 -127 60 -81T94 16T115 122T123 243Q123 308 116 364T94 470T61 567T17 663L48 685Q113 587 147 476T182 243Q182 122 148 11T48 -199L17 -175Z"  />
<glyph unicode="*" horiz-adv-x="335" d="M149 399L154 516L56 452L37 485L141 538L37 591L56 624L154 560L149 677H186L180 560L279 624L298 591L193 538L298 485L279 452L180 516L186 399H149Z"  />
<glyph unicode="+" horiz-adv-x="496" d="M271 316V99H226V316H29V358H226V569H271V358H467V316H271Z"  />
<glyph unicode="&#x2c;" horiz-adv-x="219" d="M159 14Q159 -28 138 -65T87 -122L58 -98Q82 -81 98 -55T116 -6Q114 -7 112 -7H106Q88 -7 77 5T65 35Q65 52 77 65T108 78Q128 78 143 62T159 14Z"  />
<glyph unicode="-" horiz-adv-x="300" d="M30 218V266H270V218H30Z"  />
<glyph unicode="." horiz-adv-x="219" d="M110 -9Q92 -9 79 4T65 35Q65 52 78 65T110 78Q128 78 141 65T154 35Q154 17 141 4T110 -9Z"  />
<glyph unicode="/" horiz-adv-x="282" d="M0 -20L237 687H282L45 -20H0Z"  />
<glyph unicode="0" horiz-adv-x="608" d="M551 275Q551 222 537 171T492 79T416 13T305 -12Q240 -12 193 13T116 79T72 171T58 275Q58 328 72 379T116 471T193 537T305 562Q369 562 415 537T492 472T536 380T551 275ZM490 275Q490 318 480 360T448 436T391 489T305 510Q254 510 219 490T161 436T128 361T118 275Q118 231 128 189T160 114T218 61T305 40Q355 40 390 60T447 114T480 189T490 275Z"  />
<glyph unicode="1" horiz-adv-x="308" d="M168 0V472L61 358L26 395L173 550H225V0H168Z"  />
<glyph unicode="2" horiz-adv-x="576" d="M64 0V48Q249 129 340 212T432 377Q432 407 420 431T388 473T340 500T281 510Q219 510 169 486T91 423L52 459Q87 507 149 534T282 562Q324 562 362 550T428 514T472 457T489 383Q489 335 465 289T399 199T298 119T173 52H479V0H64Z"  />
<glyph unicode="3" horiz-adv-x="542" d="M257 -129Q216 -129 181 -120T118 -96T67 -61T30 -18L69 16Q97 -24 144 -50T256 -77Q334 -77 379 -39T424 65Q424 101 410 126T372 168T315 193T245 201Q225 201 208 201T183 199V253Q191 252 208 252T245 252Q278 252 309 259T363 282T400 322T414 379Q414 410 401 434T366 474T315 499T254 508Q197 508 155 487T75 423L39 459Q74 502 129 531T257 560Q300 560 339 549T408 515T454 459T472 384Q472 346 458 318T422 272T375 243T329 228Q351 226 377 215T427 184T466 134T482 62Q482 21 467 -14T423 -74T352 -114T257 -129Z"  />
<glyph unicode="4" horiz-adv-x="541" d="M408 66V-117H351V66H35V118L331 550H408V118H506V66H408ZM351 493L94 118H351V493Z"  />
<glyph unicode="5" horiz-adv-x="582" d="M299 -129Q215 -129 162 -100T74 -20L112 18Q144 -28 189 -52T299 -77Q335 -77 366 -65T419 -31T453 20T466 84Q466 122 454 152T419 203T367 235T300 247Q254 247 215 232T138 182L95 200V550H480V498H152V237Q177 261 218 280T311 299Q353 299 391 286T459 245T506 178T524 86Q524 36 506 -4T458 -71T386 -114T299 -129Z"  />
<glyph unicode="6" horiz-adv-x="584" d="M303 -12Q235 -12 189 16T113 93T71 203T58 333Q58 397 72 459T117 569T196 647T313 677Q378 677 420 653T493 592L460 551Q435 583 402 604T313 625Q259 625 222 599T161 532T127 438T116 332Q116 324 116 317T117 301Q127 318 146 337T191 373T247 401T312 412Q357 412 396 399T464 360T510 294T527 201Q527 160 512 122T469 54T399 6T303 -12ZM301 40Q344 40 375 55T428 93T459 144T469 200Q469 241 457 271T422 321T369 351T302 361Q247 361 198 330T120 247Q123 213 134 177T166 110T221 60T301 40Z"  />
<glyph unicode="7" horiz-adv-x="502" d="M122 -117L402 498H33V550H470V510L185 -117H122Z"  />
<glyph unicode="8" horiz-adv-x="571" d="M286 -12Q238 -12 197 0T125 36T77 93T59 167Q59 202 73 230T110 281T163 319T225 344Q195 352 168 365T118 399T83 445T70 505Q70 549 89 581T138 635T208 666T286 677Q325 677 363 667T433 635T483 582T502 505Q502 472 489 446T454 399T405 366T347 344Q379 335 409 320T462 282T499 231T513 167Q513 126 496 93T448 37T376 1T286 -12ZM286 368Q301 371 328 379T380 402T425 440T444 499Q444 529 432 552T398 592T348 616T286 625Q253 625 225 617T175 592T141 553T128 499Q128 464 147 441T192 402T244 379T286 368ZM286 40Q319 40 349 49T403 75T441 116T455 171Q455 209 434 236T386 280T330 307T286 318Q271 316 243 307T186 281T138 236T117 171Q117 141 131 117T168 75T222 49T286 40Z"  />
<glyph unicode="9" horiz-adv-x="584" d="M271 -128Q206 -128 164 -105T91 -43L125 -2Q150 -34 183 -55T271 -76Q326 -76 363 -50T424 18T458 112T468 217V248Q457 231 438 212T394 176T337 148T272 137Q227 137 188 150T120 189T74 255T57 348Q57 389 72 427T115 495T186 543T281 561Q348 561 395 533T471 456T513 346T526 216Q526 152 512 90T468 -20T389 -98T271 -128ZM282 188Q337 188 386 219T464 302Q461 336 450 372T418 439T363 489T283 509Q240 509 209 494T156 456T125 405T115 349Q115 308 127 278T162 228T215 198T282 188Z"  />
<glyph unicode=":" horiz-adv-x="217" d="M110 403Q92 403 79 416T65 446Q65 464 78 477T110 490Q128 490 141 477T154 446Q154 429 141 416T110 403ZM110 -9Q92 -9 79 4T65 35Q65 52 78 65T110 78Q128 78 141 65T154 35Q154 17 141 4T110 -9Z"  />
<glyph unicode=";" horiz-adv-x="219" d="M110 403Q92 403 79 416T65 446Q65 464 78 477T110 490Q128 490 141 477T154 446Q154 429 141 416T110 403ZM159 14Q159 -27 138 -64T87 -121L58 -97Q82 -80 98 -54T116 -5Q114 -6 112 -6H106Q88 -6 77 6T65 36Q65 53 77 66T108 79Q128 79 143 63T159 14Z"  />
<glyph unicode="&lt;" horiz-adv-x="496" d="M29 316V353L467 580V531L82 334L467 139V90L29 316Z"  />
<glyph unicode="=" horiz-adv-x="496" d="M29 411V453H467V411H29ZM29 216V257H467V216H29Z"  />
<glyph unicode="&gt;" horiz-adv-x="496" d="M29 90V139L415 334L29 531V580L467 353V316L29 90Z"  />
<glyph unicode="?" horiz-adv-x="397" d="M369 433Q369 402 356 379T323 339T281 307T238 279T205 250T192 214Q192 205 197 194T221 171L182 148Q160 165 152 181T143 215Q143 241 156 260T188 295T229 324T271 352T303 384T316 426Q316 464 285 489T198 514Q141 514 105 493T43 438L12 471Q43 512 90 536T201 561Q240 561 271 551T324 523T357 482T369 433ZM233 35Q233 17 220 4T189 -9Q171 -9 158 4T145 35Q145 52 158 65T189 78Q207 78 220 65T233 35Z"  />
<glyph unicode="@" horiz-adv-x="783" d="M352 -70Q284 -70 226 -46T126 20T59 120T35 244Q35 325 68 397T155 522T282 607T432 638Q502 638 560 613T660 545T724 442T747 316Q747 259 734 216T698 144T646 100T585 85Q544 85 521 111T497 170L496 176Q470 139 427 112T332 85Q263 85 221 128T179 245Q179 299 199 345T254 426T330 480T418 500Q469 500 501 475T548 417L561 482H610L551 200Q550 195 550 191T549 181Q549 155 564 141T599 126Q614 126 634 135T672 166T702 224T715 317Q715 379 694 432T636 523T546 584T429 606Q356 606 290 576T175 496T96 381T67 245Q67 185 88 133T148 43T240 -17T356 -39Q411 -39 456 -24T543 18L560 -7Q513 -37 461 -53T352 -70ZM342 127Q370 127 394 136T440 159T477 191T506 227L538 375Q533 388 524 402T501 429T468 450T424 458Q384 458 349 440T288 393T246 325T231 247Q231 195 260 161T342 127Z"  />
<glyph unicode="A" horiz-adv-x="647" d="M566 0L500 164H147L81 0H15L288 667H359L632 0H566ZM324 606L166 216H481L324 606Z"  />
<glyph unicode="B" horiz-adv-x="615" d="M83 0V667H357Q442 667 491 622T541 497Q541 465 531 439T505 394T468 361T424 344Q451 340 474 325T515 288T543 238T554 180Q554 96 504 48T363 0H83ZM350 368Q415 368 448 403T481 491Q481 542 448 578T350 615H140V368H350ZM354 52Q420 52 457 87T494 184Q494 209 485 233T459 275T415 305T354 316H140V52H354Z"  />
<glyph unicode="C" horiz-adv-x="671" d="M396 -12Q325 -12 264 13T156 83T84 192T58 333Q58 410 84 473T156 582T263 653T396 678Q476 678 536 646T639 560L591 529Q559 573 508 599T396 626Q337 626 287 605T199 545T140 452T118 333Q118 268 139 215T198 122T286 62T396 40Q456 40 507 66T591 137L640 107Q595 52 536 20T396 -12Z"  />
<glyph unicode="D" horiz-adv-x="692" d="M83 0V667H296Q374 667 436 641T542 569T609 463T633 333Q633 264 610 203T542 97T436 26T296 0H83ZM296 52Q362 52 413 74T500 134T554 223T573 333Q573 391 555 442T501 532T414 593T296 615H140V52H296Z"  />
<glyph unicode="E" horiz-adv-x="564" d="M83 0V667H506V615H140V368H499V316H140V52H506V0H83Z"  />
<glyph unicode="F" horiz-adv-x="542" d="M83 0V667H506V615H140V368H499V316H140V0H83Z"  />
<glyph unicode="G" horiz-adv-x="711" d="M396 -13Q325 -13 264 12T157 82T85 192T58 333Q58 410 84 473T156 582T263 653T396 678Q479 678 540 648T647 564L604 533Q569 575 515 600T396 626Q337 626 287 605T199 545T140 452T118 333Q118 268 139 214T198 121T286 61T396 39Q429 39 459 46T514 65T558 91T592 120V280H340V331H649V98Q604 48 540 18T396 -13Z"  />
<glyph unicode="H" horiz-adv-x="703" d="M563 0V317H140V0H83V667H140V369H563V667H620V0H563Z"  />
<glyph unicode="I" horiz-adv-x="223" d="M83 0V667H140V0H83Z"  />
<glyph unicode="J" horiz-adv-x="470" d="M185 -12Q131 -12 89 7T14 70L49 114Q72 84 103 62T182 40Q251 40 290 82T330 193V667H387V193Q387 141 371 103T328 39T264 1T185 -12Z"  />
<glyph unicode="K" horiz-adv-x="586" d="M489 0L214 314L140 233V0H83V667H140V302L462 667H535L251 349L562 0H489Z"  />
<glyph unicode="L" horiz-adv-x="484" d="M69 0V667H127V52H450V0H69Z"  />
<glyph unicode="M" horiz-adv-x="790" d="M649 0V595L406 0H384L140 595V0H83V667H168L395 112L621 667H707V0H649Z"  />
<glyph unicode="N" horiz-adv-x="699" d="M560 0L140 573V0H83V667H141L559 102V667H616V0H560Z"  />
<glyph unicode="O" horiz-adv-x="764" d="M382 -12Q308 -12 249 14T147 87T81 197T58 333Q58 406 81 469T146 578T248 651T382 678Q455 678 515 652T617 579T683 469T706 333Q706 260 683 197T618 88T515 15T382 -12ZM382 40Q442 40 490 62T573 123T627 216T646 333Q646 396 627 450T574 543T491 604T382 626Q322 626 273 604T190 543T137 450T118 333Q118 270 136 217T189 124T273 62T382 40Z"  />
<glyph unicode="P" horiz-adv-x="571" d="M83 0V667H333Q381 667 418 652T481 609T520 547T534 472Q534 433 521 398T481 335T418 293T333 277H140V0H83ZM327 329Q360 329 387 339T434 369T463 414T474 472Q474 535 434 575T327 615H140V329H327Z"  />
<glyph unicode="Q" horiz-adv-x="764" d="M382 -12Q308 -12 249 14T147 87T81 197T58 333Q58 406 81 469T146 578T248 651T382 678Q455 678 515 652T617 579T683 469T706 333Q706 257 681 193T611 82L681 9L642 -27L571 46Q533 18 486 3T382 -12ZM382 40Q426 40 464 52T533 86L430 193L470 230L573 122Q608 162 627 215T646 333Q646 396 627 450T574 543T491 604T382 626Q322 626 273 604T190 543T137 450T118 333Q118 270 136 217T189 124T273 62T382 40Z"  />
<glyph unicode="R" horiz-adv-x="594" d="M474 0L287 276H140V0H83V667H332Q375 667 412 654T476 615T519 554T535 472Q535 427 520 392T480 332T421 295T350 280L543 0H474ZM327 328Q360 328 387 338T434 368T464 414T475 472Q475 503 465 529T435 575T388 604T327 615H140V328H327Z"  />
<glyph unicode="S" horiz-adv-x="581" d="M290 -12Q207 -12 146 18T46 94L83 137Q99 119 120 102T167 71T225 49T292 40Q343 40 376 53T430 85T459 128T467 173Q467 222 438 249T364 293T267 322T171 355T97 408T67 500Q67 541 84 574T131 630T201 665T286 678Q361 678 417 654T512 584L474 542Q438 586 389 606T283 626Q250 626 222 617T172 592T139 553T127 503Q127 471 144 450T189 415T253 391T326 369T400 345T464 309T510 256T527 177Q527 145 516 112T476 51T403 6T290 -12Z"  />
<glyph unicode="T" horiz-adv-x="564" d="M253 0V615H35V667H529V615H311V0H253Z"  />
<glyph unicode="U" horiz-adv-x="686" d="M343 -12Q279 -12 231 7T149 60T100 144T83 256V667H141V257Q141 155 192 98T343 40Q442 40 493 97T545 257V667H603V256Q603 132 538 60T343 -12Z"  />
<glyph unicode="V" horiz-adv-x="647" d="M288 0L15 667H81L324 64L566 667H632L359 0H288Z"  />
<glyph unicode="W" horiz-adv-x="867" d="M594 0L434 573L274 0H210L19 667H83L244 80L408 667H460L623 80L784 667H848L658 0H594Z"  />
<glyph unicode="X" horiz-adv-x="645" d="M555 0L322 301L90 0H19L287 342L34 667H106L322 384L539 667H611L358 343L626 0H555Z"  />
<glyph unicode="Y" horiz-adv-x="618" d="M280 0V285L15 667H84L309 339L534 667H603L338 285V0H280Z"  />
<glyph unicode="Z" horiz-adv-x="581" d="M50 0V50L452 615H50V667H524V618L122 52H531V0H50Z"  />
<glyph unicode="[" horiz-adv-x="228" d="M37 -190V678H211V635H81V-147H211V-190H37Z"  />
<glyph unicode="\" horiz-adv-x="282" d="M0 687H45L282 -20H237L0 687Z"  />
<glyph unicode="]" horiz-adv-x="228" d="M17 -190V-147H147V635H17V678H191V-190H17Z"  />
<glyph unicode="^" horiz-adv-x="428" d="M361 333L214 626L67 333H19L193 667H235L409 333H361Z"  />
<glyph unicode="_" horiz-adv-x="564" d="M-3 -83V-40H567V-83H-3Z"  />
<glyph unicode="`" horiz-adv-x="216" d="M172 556L0 700H62L216 556H172Z"  />
<glyph unicode="a" horiz-adv-x="562" d="M313 550L550 0H488L430 133H131L75 0H12L249 550H313ZM281 490L149 182H412L281 490Z"  />
<glyph unicode="b" horiz-adv-x="541" d="M81 0V550H319Q393 550 436 513T480 409Q480 359 452 327T386 284Q408 278 427 265T460 234T483 194T492 149Q492 80 447 40T324 0H81ZM318 49Q372 49 403 77T434 153Q434 173 427 192T405 225T369 249T318 258H136V49H318ZM314 307Q368 307 395 335T423 404Q423 448 395 474T314 501H136V307H314Z"  />
<glyph unicode="c" horiz-adv-x="581" d="M344 -12Q283 -12 230 9T138 68T77 159T54 276Q54 339 76 392T138 482T230 541T344 562Q413 562 465 535T555 460L512 433Q484 471 440 492T344 513Q295 513 253 496T179 447T129 372T111 276Q111 224 129 180T178 105T252 55T344 37Q395 37 440 58T512 117L556 90Q517 42 465 15T344 -12Z"  />
<glyph unicode="d" horiz-adv-x="611" d="M81 0V550H266Q333 550 387 528T479 469T537 381T557 274Q557 217 537 167T479 80T387 22T266 0H81ZM266 49Q322 49 365 66T438 114T483 186T499 274Q499 321 484 362T440 434T367 483T266 501H136V49H266Z"  />
<glyph unicode="e" horiz-adv-x="505" d="M81 0V550H449V501H136V307H444V258H136V49H449V0H81Z"  />
<glyph unicode="f" horiz-adv-x="483" d="M81 0V550H449V501H136V307H444V258H136V0H81Z"  />
<glyph unicode="g" horiz-adv-x="630" d="M345 -12Q284 -12 231 9T139 68T77 158T54 275Q54 339 76 391T138 482T231 541T345 562Q414 562 467 537T561 468L521 436Q489 471 444 492T345 513Q295 513 253 496T179 447T129 371T111 275Q111 223 129 179T178 104T252 54T345 36Q401 36 443 57T508 101V229H322V277H563V81Q524 39 468 14T345 -12Z"  />
<glyph unicode="h" horiz-adv-x="629" d="M494 0V259H136V0H81V550H136V307H494V550H548V0H494Z"  />
<glyph unicode="i" horiz-adv-x="216" d="M81 0V550H136V0H81Z"  />
<glyph unicode="j" horiz-adv-x="417" d="M158 -12Q65 -12 10 59L41 99Q61 73 88 55T155 37Q214 37 247 71T281 160V550H336V158Q336 115 322 83T284 30T228 -1T158 -12Z"  />
<glyph unicode="k" horiz-adv-x="521" d="M431 0L196 256L136 191V0H81V550H136V256L408 550H478L231 288L501 0H431Z"  />
<glyph unicode="l" horiz-adv-x="454" d="M81 0V550H136V49H413V0H81Z"  />
<glyph unicode="m" horiz-adv-x="703" d="M567 0V475L363 0H340L136 475V0H81V550H157L351 98L545 550H622V0H567Z"  />
<glyph unicode="n" horiz-adv-x="625" d="M490 0L136 464V0H81V550H137L489 93V550H544V0H490Z"  />
<glyph unicode="o" horiz-adv-x="666" d="M333 -12Q269 -12 218 10T130 71T74 162T54 275Q54 335 73 387T129 479T217 540T333 562Q396 562 447 540T535 479T592 388T612 275Q612 215 592 163T536 72T448 11T333 -12ZM333 37Q383 37 424 55T494 105T539 180T555 275Q555 326 539 370T494 445T424 495T333 513Q282 513 241 495T171 446T127 370T111 275Q111 224 126 181T171 105T241 55T333 37Z"  />
<glyph unicode="p" horiz-adv-x="509" d="M81 0V550H299Q343 550 376 537T430 502T463 450T474 388Q474 355 463 325T431 273T376 237T299 224H136V0H81ZM295 273Q357 273 387 305T417 388Q417 437 386 469T295 501H136V273H295Z"  />
<glyph unicode="q" horiz-adv-x="666" d="M333 -12Q269 -12 218 10T130 71T74 162T54 275Q54 335 73 387T129 479T217 540T333 562Q396 562 447 540T535 479T592 388T612 275Q612 212 591 158T529 65L585 5L550 -27L492 34Q460 12 420 0T333 -12ZM333 37Q404 37 457 73L373 163L408 196L493 104Q522 136 538 179T555 275Q555 326 539 370T494 445T424 495T333 513Q282 513 241 495T171 446T127 370T111 275Q111 224 126 181T171 105T241 55T333 37Z"  />
<glyph unicode="r" horiz-adv-x="533" d="M416 0L258 224H136V0H81V550H299Q341 550 373 538T428 504T463 452T475 388Q475 318 432 274T317 227L484 0H416ZM295 273Q357 273 387 305T418 388Q418 438 387 469T295 501H136V273H295Z"  />
<glyph unicode="s" horiz-adv-x="499" d="M250 -12Q179 -12 125 13T39 76L73 115Q99 85 145 61T251 36Q292 36 320 45T366 70T392 105T400 146Q400 186 375 207T311 242T228 265T145 291T82 335T56 412Q56 446 71 473T111 520T172 551T246 562Q312 562 360 541T443 483L411 445Q380 481 337 497T246 514Q218 514 194 507T151 486T123 454T113 413Q113 379 138 361T202 330T285 307T368 278T432 230T458 147Q458 115 446 86T409 35T344 1T250 -12Z"  />
<glyph unicode="t" horiz-adv-x="465" d="M205 0V501H29V550H437V501H260V0H205Z"  />
<glyph unicode="u" horiz-adv-x="613" d="M306 -12Q194 -12 138 47T81 210V550H136V212Q136 130 179 84T306 37Q389 37 433 83T477 212V550H532V210Q532 107 475 48T306 -12Z"  />
<glyph unicode="v" horiz-adv-x="562" d="M249 0L12 550H75L281 62L489 550H550L313 0H249Z"  />
<glyph unicode="w" horiz-adv-x="749" d="M511 0L374 463L238 0H180L15 550H75L210 79L350 550H399L538 78L674 550H734L569 0H511Z"  />
<glyph unicode="x" horiz-adv-x="560" d="M478 0L280 244L82 0H14L246 282L27 550H95L280 321L465 550H533L314 283L546 0H478Z"  />
<glyph unicode="y" horiz-adv-x="539" d="M244 0V235L12 550H78L272 284L462 550H527L299 235V0H244Z"  />
<glyph unicode="z" horiz-adv-x="513" d="M41 0V43L394 501H41V550H465V506L113 49H472V0H41Z"  />
<glyph unicode="{" horiz-adv-x="249" d="M170 -190Q149 -190 129 -182T93 -157T68 -118T58 -66V153Q58 181 45 202T6 224V264Q32 264 45 285T58 335V554Q58 582 67 605T93 644T129 669T170 678H232V635H170Q143 635 123 613T102 554V332Q102 300 92 278T57 244Q82 233 92 211T102 156V-66Q102 -101 122 -124T170 -147H232V-190H170Z"  />
<glyph unicode="|" horiz-adv-x="208" d="M83 -20V687H126V-20H83Z"  />
<glyph unicode="}" horiz-adv-x="249" d="M17 -147H79Q106 -147 126 -124T146 -66V156Q146 188 156 210T191 244Q167 255 157 277T146 332V554Q146 590 126 612T79 635H17V678H79Q100 678 120 669T156 644T181 605T191 554V335Q191 307 204 286T243 264V224Q217 224 204 203T191 153V-66Q191 -95 182 -117T156 -156T120 -181T79 -190H17V-147Z"  />
<glyph unicode="~" horiz-adv-x="499" d="M472 662Q467 617 459 575T436 500T397 448T338 428Q307 428 288 442T257 479T236 526T218 573T195 609T161 624Q121 624 100 572T71 426L28 433Q32 478 40 520T64 594T102 646T161 665Q192 665 211 651T243 614T264 567T282 519T304 483T338 468Q378 468 399 520T429 667L472 662Z"  />
<glyph unicode="&#xA0;" horiz-adv-x="259" />
<glyph unicode="&#xA1;" horiz-adv-x="176" d="M69 401H108L121 0H56L69 401ZM45 515Q45 533 57 546T88 559Q106 559 119 546T132 515Q132 498 119 485T88 472Q70 472 58 485T45 515Z"  />
<glyph unicode="&#xA2;" horiz-adv-x="581" d="M321 -11Q264 -7 215 15T131 75T75 164T54 276Q54 336 74 386T130 474T215 534T321 561V617H364V561Q425 557 472 531T555 460L512 433Q486 467 448 487T364 512V38Q410 42 449 63T512 117L556 90Q520 45 473 19T364 -11V-96H321V-11ZM111 276Q111 227 127 185T171 112T237 62T321 38V512Q276 508 238 489T171 439T127 367T111 276Z"  />
<glyph unicode="&#xA3;" horiz-adv-x="415" d="M14 262H97Q76 291 58 324T39 402Q39 435 52 464T89 514T145 548T216 561Q266 561 309 538T372 474L331 450Q315 482 286 500T219 519Q194 519 171 511T131 487T103 451T92 402Q92 361 113 328T157 262H294V223H182Q189 209 193 195T198 164Q198 132 182 106T140 63Q149 66 162 66Q184 66 201 61T235 51T266 40T298 35Q323 35 346 44T380 67L407 27Q391 12 362 0T296 -12Q269 -12 253 -7T223 5T194 17T152 23Q132 23 107 14T56 -9L35 35Q95 60 122 91T149 157Q149 175 143 191T126 223H14V262Z"  />
<glyph unicode="&#xA4;" horiz-adv-x="506" d="M253 222Q310 222 341 262T372 365Q372 395 364 421T341 467T304 498T253 509Q224 509 202 498T165 468T141 422T133 365Q133 334 141 308T164 263T202 233T253 222ZM19 168L88 239Q50 294 50 365Q50 436 88 489L19 560L64 603L131 534Q155 552 185 563T253 574Q289 574 320 563T375 534L442 603L487 560L418 489Q455 435 455 365Q455 330 445 298T417 240L487 168L442 125L374 194Q325 157 253 157Q181 157 132 194L64 125L19 168Z"  />
<glyph unicode="&#xA5;" horiz-adv-x="539" d="M244 0V116H23V154H244V234H23V273H216L12 550H78L272 284L462 550H527L326 273H515V234H299V154H515V116H299V0H244Z"  />
<glyph unicode="&#xA6;" horiz-adv-x="208" d="M83 -20V296H126V-20H83ZM83 371V687H126V371H83Z"  />
<glyph unicode="&#xA7;" horiz-adv-x="461" d="M406 310Q406 268 382 236T310 183Q355 166 380 139T406 62Q406 28 393 2T356 -43T299 -71T225 -81Q189 -81 161 -75T110 -58T71 -33T39 -4L70 32Q92 5 130 -17T225 -40Q282 -40 318 -14T355 60Q355 94 333 112T276 142T203 163T129 186T73 226T50 294Q50 321 60 342T86 379T125 406T173 423Q118 440 84 467T50 545Q50 572 61 596T94 638T148 666T222 677Q287 677 329 655T394 605L366 572Q340 605 302 620T223 636Q170 636 136 611T102 544Q102 513 124 497T181 470T254 452T327 427T383 384T406 310ZM354 307Q354 331 343 347T314 375T274 394T229 407Q155 388 129 361T102 297Q102 274 115 259T151 232T201 213T261 198Q305 217 329 242T354 307Z"  />
<glyph unicode="&#xA8;" horiz-adv-x="262" d="M270 601Q270 586 259 575T233 564Q218 564 207 575T196 601Q196 616 207 627T233 638Q248 638 259 627T270 601ZM66 601Q66 586 55 575T29 564Q14 564 3 575T-8 601Q-8 616 3 627T29 638Q44 638 55 627T66 601Z"  />
<glyph unicode="&#xA9;" horiz-adv-x="778" d="M734 334Q734 263 707 200T633 90T524 16T389 -11Q318 -11 255 16T145 90T71 200T44 334Q44 406 71 468T145 578T255 652T389 679Q461 679 523 652T633 578T707 469T734 334ZM706 334Q706 400 681 457T613 558T513 626T389 651Q324 651 266 626T165 558T97 458T72 334Q72 269 97 211T165 110T266 42T389 17Q455 17 512 42T613 110T681 211T706 334ZM535 186Q508 154 473 137T390 120Q347 120 309 136T243 182T199 250T182 336Q182 382 198 421T243 488T309 533T390 549Q437 549 473 532T535 484L513 462Q493 488 459 503T390 519Q355 519 324 506T268 469T230 411T215 335Q215 295 229 261T268 203T323 164T390 150Q426 150 459 166T513 208L535 186Z"  />
<glyph unicode="&#xAA;" horiz-adv-x="375" d="M268 326V363Q226 318 158 318Q137 318 117 325T81 345T56 378T46 423Q46 448 55 467T81 500T117 519T158 526Q226 526 268 482V543Q268 578 242 595T183 613Q157 613 130 602T83 565L61 593Q87 621 117 634T188 648Q213 648 235 642T274 624T300 591T310 543V326H268ZM174 348Q202 348 227 359T268 390V455Q252 475 227 485T174 496Q136 496 113 476T89 423Q89 390 112 369T174 348Z"  />
<glyph unicode="&#xAB;" horiz-adv-x="402" d="M315 63L155 243L315 420H372L212 243L372 63H315ZM190 63L30 243L190 420H247L87 243L247 63H190Z"  />
<glyph unicode="&#xAC;" horiz-adv-x="499" d="M467 216H424V411H29V453H467V216Z"  />
<glyph unicode="&#xAD;" horiz-adv-x="300" d="M30 218V266H270V218H30Z"  />
<glyph unicode="&#xAE;" horiz-adv-x="494" d="M459 465Q459 421 443 383T398 315T330 270T247 253Q203 253 165 269T97 315T52 382T35 465Q35 509 51 548T97 615T164 660T247 677Q291 677 330 661T397 616T442 548T459 465ZM432 465Q432 504 418 537T378 596T319 635T247 650Q209 650 175 636T116 596T77 538T62 465Q62 427 76 394T116 335T175 295T247 280Q285 280 319 294T378 334T417 393T432 465ZM306 343L243 439H197V343H167V586H266Q297 586 319 566T341 512Q341 492 334 478T316 456T295 444T279 440L344 343H306ZM310 512Q310 532 296 545T266 558H197V468H266Q282 468 296 480T310 512Z"  />
<glyph unicode="&#xAF;" horiz-adv-x="363" d="M0 591V629H363V591H0Z"  />
<glyph unicode="&#xB0;" horiz-adv-x="282" d="M257 560Q257 536 248 515T223 479T186 454T140 445Q116 445 95 454T59 478T34 515T25 560Q25 584 34 605T58 642T95 667T140 677Q164 677 185 668T223 643T248 606T257 560ZM218 560Q218 592 195 615T140 638Q108 638 86 615T64 560Q64 528 86 506T140 484Q172 484 195 506T218 560Z"  />
<glyph unicode="&#xB1;" horiz-adv-x="496" d="M271 323V105H226V323H29V364H226V576H271V364H467V323H271ZM29 0V41H467V0H29Z"  />
<glyph unicode="&#xB2;" horiz-adv-x="384" d="M52 421V456Q106 495 149 529T223 594T270 653T287 710Q287 731 279 746T258 770T228 784T194 789Q156 789 127 775T81 737L54 765Q77 795 115 811T195 827Q219 827 243 821T287 800T319 765T331 712Q331 679 315 648T269 585T202 523T118 459H333V421H52Z"  />
<glyph unicode="&#xB3;" horiz-adv-x="384" d="M335 529Q335 478 297 446T190 414Q138 414 101 433T46 479L72 507Q91 482 121 467T189 452Q236 452 262 473T289 530Q289 573 257 591T179 609Q166 609 156 609T141 608V646Q146 645 155 645T179 645Q222 645 252 661T283 718Q283 753 255 771T187 789Q152 789 126 777T76 739L51 766Q73 792 107 809T190 827Q219 827 244 820T288 800T317 766T328 721Q328 698 319 682T297 654T268 636T239 628Q252 627 269 621T300 602T325 572T335 529Z"  />
<glyph unicode="&#xB4;" horiz-adv-x="216" d="M44 556H0L154 700H216L44 556Z"  />
<glyph unicode="&#xB5;" horiz-adv-x="540" d="M81 -184V483H133V155Q133 120 141 97T165 59T202 39T250 33Q273 33 296 40T339 58T377 84T407 115V483H459V0H407V71Q392 54 373 39T332 13T284 -5T233 -12Q170 -12 133 13V-184H81Z"  />
<glyph unicode="&#xB6;" horiz-adv-x="449" d="M330 -100V629H237V-100H199V323Q163 323 132 336T78 373T41 428T27 495Q27 531 40 562T77 616T132 653T199 667H368V-100H330Z"  />
<glyph unicode="&#xB7;" horiz-adv-x="219" d="M154 245Q154 227 141 214T110 201Q92 201 79 214T66 245Q66 262 79 275T110 288Q128 288 141 275T154 245Z"  />
<glyph unicode="&#xB8;" horiz-adv-x="198" d="M97 -189Q67 -189 41 -181T0 -160L17 -128Q35 -143 55 -149T96 -156Q122 -156 141 -144T161 -111Q161 -93 151 -82T121 -71Q96 -71 80 -89L53 -73L83 11H121L95 -56Q111 -45 132 -45Q161 -45 179 -63T198 -111Q198 -146 169 -167T97 -189Z"  />
<glyph unicode="&#xB9;" horiz-adv-x="214" d="M108 421V762L44 693L17 722L114 821H154V421H108Z"  />
<glyph unicode="&#xBA;" horiz-adv-x="405" d="M202 318Q166 318 137 331T88 366T56 419T44 483Q44 517 55 547T87 600T137 635T202 648Q238 648 267 635T318 600T350 548T361 483Q361 449 350 419T318 367T268 331T202 318ZM202 355Q229 355 250 365T287 392T309 433T317 483Q317 509 310 532T287 572T251 600T202 610Q175 610 154 600T119 573T97 532T89 483Q89 457 96 434T118 393T154 365T202 355Z"  />
<glyph unicode="&#xBB;" horiz-adv-x="402" d="M87 63H30L190 243L30 420H87L247 243L87 63ZM212 63H155L315 243L155 420H212L372 243L212 63Z"  />
<glyph unicode="&#xBC;" horiz-adv-x="742" d="M141 0H96L522 667H568L141 0ZM641 107V0H597V107H401V142L580 400H641V144H701V107H641ZM597 359L447 144H597V359ZM108 267V608L44 539L17 568L114 667H154V267H108Z"  />
<glyph unicode="&#xBD;" horiz-adv-x="781" d="M141 0H96L522 667H568L141 0ZM449 0V35Q503 74 546 108T620 173T667 232T684 289Q684 310 676 325T655 349T625 363T591 368Q553 368 524 354T478 316L451 344Q474 374 512 390T592 406Q616 406 640 400T684 379T716 344T728 291Q728 258 712 227T666 164T599 102T515 38H730V0H449ZM108 267V608L44 539L17 568L114 667H154V267H108Z"  />
<glyph unicode="&#xBE;" horiz-adv-x="859" d="M258 0H213L639 667H685L258 0ZM758 107V0H714V107H518V142L697 400H758V144H818V107H758ZM714 359L564 144H714V359ZM335 375Q335 324 297 292T190 260Q138 260 101 279T46 325L72 353Q91 328 121 313T189 298Q236 298 262 319T289 376Q289 419 257 437T179 455Q166 455 156 455T141 454V492Q146 491 155 491T179 491Q222 491 252 507T283 564Q283 599 255 617T187 635Q152 635 126 623T76 585L51 612Q73 638 107 655T190 673Q219 673 244 666T288 646T317 612T328 567Q328 544 319 528T297 500T268 482T239 474Q252 473 269 467T300 448T325 418T335 375Z"  />
<glyph unicode="&#xBF;" horiz-adv-x="397" d="M28 117Q28 148 41 171T74 211T116 243T159 271T192 300T205 336Q205 345 200 356T176 379L215 402Q237 385 245 369T254 335Q254 308 241 289T209 255T168 226T126 198T94 166T81 124Q81 86 112 61T199 36Q256 36 292 57T354 112L385 79Q354 38 307 14T196 -11Q157 -11 126 -1T73 27T40 68T28 117ZM164 515Q164 533 177 546T208 559Q226 559 239 546T252 515Q252 498 239 485T208 472Q190 472 177 485T164 515Z"  />
<glyph unicode="&#xC0;" horiz-adv-x="647" d="M340 728L168 872H230L384 728H340ZM566 0L500 164H147L81 0H15L288 667H359L632 0H566ZM324 606L166 216H481L324 606Z"  />
<glyph unicode="&#xC1;" horiz-adv-x="647" d="M309 728H265L419 872H481L309 728ZM566 0L500 164H147L81 0H15L288 667H359L632 0H566ZM324 606L166 216H481L324 606Z"  />
<glyph unicode="&#xC2;" horiz-adv-x="647" d="M410 728L324 841L240 728H200L297 872H351L450 728H410ZM566 0L500 164H147L81 0H15L288 667H359L632 0H566ZM324 606L166 216H481L324 606Z"  />
<glyph unicode="&#xC3;" horiz-adv-x="647" d="M385 726Q357 726 342 742T315 777T292 812T260 828Q237 828 222 806T206 732H171Q171 760 177 784T195 827T224 855T264 866Q292 866 307 850T334 815T357 780T389 764Q412 764 427 786T443 860H478Q478 832 472 808T455 765T426 737T385 726ZM566 0L500 164H147L81 0H15L288 667H359L632 0H566ZM324 606L166 216H481L324 606Z"  />
<glyph unicode="&#xC4;" horiz-adv-x="647" d="M463 769Q463 754 452 743T426 732Q411 732 400 743T389 769Q389 784 400 795T426 806Q441 806 452 795T463 769ZM259 769Q259 754 248 743T222 732Q207 732 196 743T185 769Q185 784 196 795T222 806Q237 806 248 795T259 769ZM566 0L500 164H147L81 0H15L288 667H359L632 0H566ZM324 606L166 216H481L324 606Z"  />
<glyph unicode="&#xC5;" horiz-adv-x="647" d="M325 692Q305 692 288 699T257 720T237 751T229 788Q229 828 257 856T325 884Q344 884 361 877T392 856T412 826T420 788Q420 768 413 751T392 721T362 700T325 692ZM325 724Q351 724 369 743T388 788Q388 814 370 833T325 852Q299 852 280 833T261 788Q261 762 280 743T325 724ZM566 0L500 164H147L81 0H15L288 667H359L632 0H566ZM324 606L166 216H481L324 606Z"  />
<glyph unicode="&#xC6;" horiz-adv-x="939" d="M456 0V164H182L80 0H14L435 667H879V615H514V368H872V316H514V52H879V0H456ZM456 606L211 216H456V606Z"  />
<glyph unicode="&#xC7;" horiz-adv-x="671" d="M390 -185Q360 -185 334 -177T293 -156L310 -124Q328 -139 348 -145T389 -152Q415 -152 434 -140T454 -107Q454 -89 444 -78T414 -67Q389 -67 373 -85L346 -69L367 -11Q301 -6 245 21T147 93T82 199T58 333Q58 410 84 473T156 582T263 653T396 678Q476 678 536 646T639 560L591 529Q559 573 508 599T396 626Q337 626 287 605T199 545T140 452T118 333Q118 268 139 215T198 122T286 62T396 40Q456 40 507 66T591 137L640 107Q595 53 538 22T403 -12L388 -52Q404 -41 425 -41Q454 -41 472 -59T491 -107Q491 -142 462 -163T390 -185Z"  />
<glyph unicode="&#xC8;" horiz-adv-x="564" d="M310 728L138 872H200L354 728H310ZM83 0V667H506V615H140V368H499V316H140V52H506V0H83Z"  />
<glyph unicode="&#xC9;" horiz-adv-x="564" d="M279 728H235L389 872H451L279 728ZM83 0V667H506V615H140V368H499V316H140V52H506V0H83Z"  />
<glyph unicode="&#xCA;" horiz-adv-x="564" d="M378 728L292 841L208 728H168L265 872H319L418 728H378ZM83 0V667H506V615H140V368H499V316H140V52H506V0H83Z"  />
<glyph unicode="&#xCB;" horiz-adv-x="564" d="M432 769Q432 754 421 743T395 732Q380 732 369 743T358 769Q358 784 369 795T395 806Q410 806 421 795T432 769ZM228 769Q228 754 217 743T191 732Q176 732 165 743T154 769Q154 784 165 795T191 806Q206 806 217 795T228 769ZM83 0V667H506V615H140V368H499V316H140V52H506V0H83Z"  />
<glyph unicode="&#xCC;" horiz-adv-x="223" d="M128 728L-44 872H18L172 728H128ZM83 0V667H140V0H83Z"  />
<glyph unicode="&#xCD;" horiz-adv-x="223" d="M97 728H53L207 872H269L97 728ZM83 0V667H140V0H83Z"  />
<glyph unicode="&#xCE;" horiz-adv-x="223" d="M198 728L112 841L28 728H-12L85 872H139L238 728H198ZM83 0V667H140V0H83Z"  />
<glyph unicode="&#xCF;" horiz-adv-x="223" d="M251 769Q251 754 240 743T214 732Q199 732 188 743T177 769Q177 784 188 795T214 806Q229 806 240 795T251 769ZM47 769Q47 754 36 743T10 732Q-5 732 -16 743T-27 769Q-27 784 -16 795T10 806Q25 806 36 795T47 769ZM83 0V667H140V0H83Z"  />
<glyph unicode="&#xD0;" horiz-adv-x="721" d="M112 0V308H11V354H112V667H325Q403 667 465 641T571 569T638 463T662 333Q662 264 639 203T571 97T465 26T325 0H112ZM169 308V52H325Q391 52 442 74T529 134T583 223T602 333Q602 391 584 442T530 532T443 593T325 615H169V354H349V308H169Z"  />
<glyph unicode="&#xD1;" horiz-adv-x="699" d="M408 726Q380 726 365 742T338 777T315 812T283 828Q260 828 245 806T229 732H194Q194 760 200 784T218 827T247 855T287 866Q315 866 330 850T357 815T380 780T412 764Q435 764 450 786T466 860H501Q501 832 495 808T478 765T449 737T408 726ZM560 0L140 573V0H83V667H141L559 102V667H616V0H560Z"  />
<glyph unicode="&#xD2;" horiz-adv-x="764" d="M402 728L230 872H292L446 728H402ZM382 -12Q308 -12 249 14T147 87T81 197T58 333Q58 406 81 469T146 578T248 651T382 678Q455 678 515 652T617 579T683 469T706 333Q706 260 683 197T618 88T515 15T382 -12ZM382 40Q442 40 490 62T573 123T627 216T646 333Q646 396 627 450T574 543T491 604T382 626Q322 626 273 604T190 543T137 450T118 333Q118 270 136 217T189 124T273 62T382 40Z"  />
<glyph unicode="&#xD3;" horiz-adv-x="764" d="M368 728H324L478 872H540L368 728ZM382 -12Q308 -12 249 14T147 87T81 197T58 333Q58 406 81 469T146 578T248 651T382 678Q455 678 515 652T617 579T683 469T706 333Q706 260 683 197T618 88T515 15T382 -12ZM382 40Q442 40 490 62T573 123T627 216T646 333Q646 396 627 450T574 543T491 604T382 626Q322 626 273 604T190 543T137 450T118 333Q118 270 136 217T189 124T273 62T382 40Z"  />
<glyph unicode="&#xD4;" horiz-adv-x="764" d="M469 728L383 841L299 728H259L356 872H410L509 728H469ZM382 -12Q308 -12 249 14T147 87T81 197T58 333Q58 406 81 469T146 578T248 651T382 678Q455 678 515 652T617 579T683 469T706 333Q706 260 683 197T618 88T515 15T382 -12ZM382 40Q442 40 490 62T573 123T627 216T646 333Q646 396 627 450T574 543T491 604T382 626Q322 626 273 604T190 543T137 450T118 333Q118 270 136 217T189 124T273 62T382 40Z"  />
<glyph unicode="&#xD5;" horiz-adv-x="764" d="M443 726Q415 726 400 742T373 777T350 812T318 828Q295 828 280 806T264 732H229Q229 760 235 784T253 827T282 855T322 866Q350 866 365 850T392 815T415 780T447 764Q470 764 485 786T501 860H536Q536 832 530 808T513 765T484 737T443 726ZM382 -12Q308 -12 249 14T147 87T81 197T58 333Q58 406 81 469T146 578T248 651T382 678Q455 678 515 652T617 579T683 469T706 333Q706 260 683 197T618 88T515 15T382 -12ZM382 40Q442 40 490 62T573 123T627 216T646 333Q646 396 627 450T574 543T491 604T382 626Q322 626 273 604T190 543T137 450T118 333Q118 270 136 217T189 124T273 62T382 40Z"  />
<glyph unicode="&#xD6;" horiz-adv-x="764" d="M520 769Q520 754 509 743T483 732Q468 732 457 743T446 769Q446 784 457 795T483 806Q498 806 509 795T520 769ZM316 769Q316 754 305 743T279 732Q264 732 253 743T242 769Q242 784 253 795T279 806Q294 806 305 795T316 769ZM382 -12Q308 -12 249 14T147 87T81 197T58 333Q58 406 81 469T146 578T248 651T382 678Q455 678 515 652T617 579T683 469T706 333Q706 260 683 197T618 88T515 15T382 -12ZM382 40Q442 40 490 62T573 123T627 216T646 333Q646 396 627 450T574 543T491 604T382 626Q322 626 273 604T190 543T137 450T118 333Q118 270 136 217T189 124T273 62T382 40Z"  />
<glyph unicode="&#xD7;" horiz-adv-x="496" d="M248 305L97 153L67 182L219 334L67 486L97 515L248 363L400 515L429 486L277 334L429 182L400 153L248 305Z"  />
<glyph unicode="&#xD8;" horiz-adv-x="764" d="M382 -12Q334 -12 292 -1T214 32L194 0H143L179 56Q121 103 90 174T58 333Q58 406 81 469T146 578T248 651T382 678Q429 678 470 667T546 635L566 667H618L582 611Q641 564 673 493T706 333Q706 260 683 197T618 88T515 15T382 -12ZM382 40Q442 40 490 62T573 123T627 216T646 333Q646 406 622 465T552 564L243 78Q272 60 307 50T382 40ZM118 333Q118 261 141 202T209 104L517 590Q458 626 382 626Q322 626 273 604T190 543T137 450T118 333Z"  />
<glyph unicode="&#xD9;" horiz-adv-x="686" d="M361 728L189 872H251L405 728H361ZM343 -12Q279 -12 231 7T149 60T100 144T83 256V667H141V257Q141 155 192 98T343 40Q442 40 493 97T545 257V667H603V256Q603 132 538 60T343 -12Z"  />
<glyph unicode="&#xDA;" horiz-adv-x="686" d="M327 728H283L437 872H499L327 728ZM343 -12Q279 -12 231 7T149 60T100 144T83 256V667H141V257Q141 155 192 98T343 40Q442 40 493 97T545 257V667H603V256Q603 132 538 60T343 -12Z"  />
<glyph unicode="&#xDB;" horiz-adv-x="686" d="M432 728L346 841L262 728H222L319 872H373L472 728H432ZM343 -12Q279 -12 231 7T149 60T100 144T83 256V667H141V257Q141 155 192 98T343 40Q442 40 493 97T545 257V667H603V256Q603 132 538 60T343 -12Z"  />
<glyph unicode="&#xDC;" horiz-adv-x="686" d="M483 769Q483 754 472 743T446 732Q431 732 420 743T409 769Q409 784 420 795T446 806Q461 806 472 795T483 769ZM279 769Q279 754 268 743T242 732Q227 732 216 743T205 769Q205 784 216 795T242 806Q257 806 268 795T279 769ZM343 -12Q279 -12 231 7T149 60T100 144T83 256V667H141V257Q141 155 192 98T343 40Q442 40 493 97T545 257V667H603V256Q603 132 538 60T343 -12Z"  />
<glyph unicode="&#xDD;" horiz-adv-x="618" d="M298 728H254L408 872H470L298 728ZM280 0V285L15 667H84L309 339L534 667H603L338 285V0H280Z"  />
<glyph unicode="&#xDE;" horiz-adv-x="571" d="M83 0V667H140V543H333Q381 543 418 527T481 484T520 422T534 347Q534 308 521 273T481 211T418 169T333 153H140V0H83ZM327 205Q360 205 387 215T434 245T463 290T474 347Q474 378 464 404T434 450T388 480T327 491H140V205H327Z"  />
<glyph unicode="&#xDF;" horiz-adv-x="998" d="M250 -12Q179 -12 125 13T39 76L73 115Q99 85 145 61T251 36Q292 36 320 45T366 70T392 105T400 146Q400 186 375 207T311 242T228 265T145 291T82 335T56 412Q56 446 71 473T111 520T172 551T246 562Q312 562 360 541T443 483L411 445Q380 481 337 497T246 514Q218 514 194 507T151 486T123 454T113 413Q113 379 138 361T202 330T285 307T368 278T432 230T458 147Q458 115 446 86T409 35T344 1T250 -12ZM749 -12Q678 -12 624 13T538 76L572 115Q598 85 644 61T750 36Q791 36 819 45T865 70T891 105T899 146Q899 186 874 207T810 242T727 265T644 291T581 335T555 412Q555 446 570 473T610 520T671 551T745 562Q811 562 859 541T942 483L910 445Q879 481 836 497T745 514Q717 514 693 507T650 486T622 454T612 413Q612 379 637 361T701 330T784 307T867 278T931 230T957 147Q957 115 945 86T908 35T843 1T749 -12Z"  />
<glyph unicode="&#xE0;" horiz-adv-x="562" d="M313 550L550 0H488L430 133H131L75 0H12L249 550H313ZM281 490L149 182H412L281 490ZM297 606L125 750H187L341 606H297Z"  />
<glyph unicode="&#xE1;" horiz-adv-x="562" d="M313 550L550 0H488L430 133H131L75 0H12L249 550H313ZM281 490L149 182H412L281 490ZM267 606H223L377 750H439L267 606Z"  />
<glyph unicode="&#xE2;" horiz-adv-x="562" d="M313 550L550 0H488L430 133H131L75 0H12L249 550H313ZM281 490L149 182H412L281 490ZM368 606L282 719L198 606H158L255 750H309L408 606H368Z"  />
<glyph unicode="&#xE3;" horiz-adv-x="562" d="M313 550L550 0H488L430 133H131L75 0H12L249 550H313ZM281 490L149 182H412L281 490ZM342 604Q314 604 299 620T272 655T249 690T217 706Q194 706 179 684T163 610H128Q128 638 134 662T152 705T181 733T221 744Q249 744 264 728T291 693T314 658T346 642Q369 642 384 664T400 738H435Q435 710 429 686T412 643T383 615T342 604Z"  />
<glyph unicode="&#xE4;" horiz-adv-x="562" d="M313 550L550 0H488L430 133H131L75 0H12L249 550H313ZM281 490L149 182H412L281 490ZM420 654Q420 639 409 628T383 617Q368 617 357 628T346 654Q346 669 357 680T383 691Q398 691 409 680T420 654ZM216 654Q216 639 205 628T179 617Q164 617 153 628T142 654Q142 669 153 680T179 691Q194 691 205 680T216 654Z"  />
<glyph unicode="&#xE5;" horiz-adv-x="562" d="M313 550L550 0H488L430 133H131L75 0H12L249 550H313ZM281 490L149 182H412L281 490ZM282 607Q262 607 245 614T214 635T194 666T186 703Q186 743 214 771T282 799Q301 799 318 792T349 771T369 741T377 703Q377 683 370 666T349 636T319 615T282 607ZM282 639Q308 639 326 658T345 703Q345 729 327 748T282 767Q256 767 237 748T218 703Q218 677 237 658T282 639Z"  />
<glyph unicode="&#xE6;" horiz-adv-x="811" d="M386 0V133H159L75 0H12L367 550H755V501H442V307H749V258H442V49H755V0H386ZM386 490L188 182H386V490Z"  />
<glyph unicode="&#xE7;" horiz-adv-x="581" d="M345 -189Q315 -189 289 -181T248 -160L265 -128Q283 -143 303 -149T344 -156Q370 -156 389 -144T409 -111Q409 -93 399 -82T369 -71Q344 -71 328 -89L301 -73L323 -11Q266 -8 217 14T131 74T75 163T54 276Q54 339 76 392T138 482T230 541T344 562Q413 562 465 535T555 460L512 433Q484 471 440 492T344 513Q295 513 253 496T179 447T129 372T111 276Q111 224 129 180T178 105T252 55T344 37Q395 37 440 58T512 117L556 90Q519 45 471 19T360 -11L343 -56Q359 -45 380 -45Q409 -45 427 -63T446 -111Q446 -146 417 -167T345 -189Z"  />
<glyph unicode="&#xE8;" horiz-adv-x="505" d="M81 0V550H449V501H136V307H444V258H136V49H449V0H81ZM284 606L112 750H174L328 606H284Z"  />
<glyph unicode="&#xE9;" horiz-adv-x="505" d="M81 0V550H449V501H136V307H444V258H136V49H449V0H81ZM253 606H209L363 750H425L253 606Z"  />
<glyph unicode="&#xEA;" horiz-adv-x="505" d="M81 0V550H449V501H136V307H444V258H136V49H449V0H81ZM354 606L268 719L184 606H144L241 750H295L394 606H354Z"  />
<glyph unicode="&#xEB;" horiz-adv-x="505" d="M81 0V550H449V501H136V307H444V258H136V49H449V0H81ZM403 654Q403 639 392 628T366 617Q351 617 340 628T329 654Q329 669 340 680T366 691Q381 691 392 680T403 654ZM199 654Q199 639 188 628T162 617Q147 617 136 628T125 654Q125 669 136 680T162 691Q177 691 188 680T199 654Z"  />
<glyph unicode="&#xEC;" horiz-adv-x="215" d="M81 0V550H136V0H81ZM124 606L-48 750H14L168 606H124Z"  />
<glyph unicode="&#xED;" horiz-adv-x="215" d="M81 0V550H136V0H81ZM94 606H50L204 750H266L94 606Z"  />
<glyph unicode="&#xEE;" horiz-adv-x="215" d="M81 0V550H136V0H81ZM194 606L108 719L24 606H-16L81 750H135L234 606H194Z"  />
<glyph unicode="&#xEF;" horiz-adv-x="215" d="M81 0V550H136V0H81ZM248 654Q248 639 237 628T211 617Q196 617 185 628T174 654Q174 669 185 680T211 691Q226 691 237 680T248 654ZM44 654Q44 639 33 628T7 617Q-8 617 -19 628T-30 654Q-30 669 -19 680T7 691Q22 691 33 680T44 654Z"  />
<glyph unicode="&#xF0;" horiz-adv-x="622" d="M79 0V260H11V299H79V550H264Q331 550 385 528T477 469T535 381T555 274Q555 217 535 167T477 80T385 22T264 0H79ZM134 260V49H264Q320 49 363 66T436 114T481 186T497 274Q497 321 482 362T438 434T365 483T264 501H134V299H276V260H134Z"  />
<glyph unicode="&#xF1;" horiz-adv-x="625" d="M490 0L136 464V0H81V550H137L489 93V550H544V0H490ZM372 604Q344 604 329 620T302 655T279 690T247 706Q224 706 209 684T193 610H158Q158 638 164 662T182 705T211 733T251 744Q279 744 294 728T321 693T344 658T376 642Q399 642 414 664T430 738H465Q465 710 459 686T442 643T413 615T372 604Z"  />
<glyph unicode="&#xF2;" horiz-adv-x="666" d="M333 -12Q269 -12 218 10T130 71T74 162T54 275Q54 335 73 387T129 479T217 540T333 562Q396 562 447 540T535 479T592 388T612 275Q612 215 592 163T536 72T448 11T333 -12ZM333 37Q383 37 424 55T494 105T539 180T555 275Q555 326 539 370T494 445T424 495T333 513Q282 513 241 495T171 446T127 370T111 275Q111 224 126 181T171 105T241 55T333 37ZM349 606L177 750H239L393 606H349Z"  />
<glyph unicode="&#xF3;" horiz-adv-x="666" d="M333 -12Q269 -12 218 10T130 71T74 162T54 275Q54 335 73 387T129 479T217 540T333 562Q396 562 447 540T535 479T592 388T612 275Q612 215 592 163T536 72T448 11T333 -12ZM333 37Q383 37 424 55T494 105T539 180T555 275Q555 326 539 370T494 445T424 495T333 513Q282 513 241 495T171 446T127 370T111 275Q111 224 126 181T171 105T241 55T333 37ZM320 606H276L430 750H492L320 606Z"  />
<glyph unicode="&#xF4;" horiz-adv-x="666" d="M333 -12Q269 -12 218 10T130 71T74 162T54 275Q54 335 73 387T129 479T217 540T333 562Q396 562 447 540T535 479T592 388T612 275Q612 215 592 163T536 72T448 11T333 -12ZM333 37Q383 37 424 55T494 105T539 180T555 275Q555 326 539 370T494 445T424 495T333 513Q282 513 241 495T171 446T127 370T111 275Q111 224 126 181T171 105T241 55T333 37ZM420 606L334 719L250 606H210L307 750H361L460 606H420Z"  />
<glyph unicode="&#xF5;" horiz-adv-x="666" d="M333 -12Q269 -12 218 10T130 71T74 162T54 275Q54 335 73 387T129 479T217 540T333 562Q396 562 447 540T535 479T592 388T612 275Q612 215 592 163T536 72T448 11T333 -12ZM333 37Q383 37 424 55T494 105T539 180T555 275Q555 326 539 370T494 445T424 495T333 513Q282 513 241 495T171 446T127 370T111 275Q111 224 126 181T171 105T241 55T333 37ZM396 604Q368 604 353 620T326 655T303 690T271 706Q248 706 233 684T217 610H182Q182 638 188 662T206 705T235 733T275 744Q303 744 318 728T345 693T368 658T400 642Q423 642 438 664T454 738H489Q489 710 483 686T466 643T437 615T396 604Z"  />
<glyph unicode="&#xF6;" horiz-adv-x="666" d="M333 -12Q269 -12 218 10T130 71T74 162T54 275Q54 335 73 387T129 479T217 540T333 562Q396 562 447 540T535 479T592 388T612 275Q612 215 592 163T536 72T448 11T333 -12ZM333 37Q383 37 424 55T494 105T539 180T555 275Q555 326 539 370T494 445T424 495T333 513Q282 513 241 495T171 446T127 370T111 275Q111 224 126 181T171 105T241 55T333 37ZM474 654Q474 639 463 628T437 617Q422 617 411 628T400 654Q400 669 411 680T437 691Q452 691 463 680T474 654ZM270 654Q270 639 259 628T233 617Q218 617 207 628T196 654Q196 669 207 680T233 691Q248 691 259 680T270 654Z"  />
<glyph unicode="&#xF7;" horiz-adv-x="511" d="M295 531Q295 515 284 503T256 491Q239 491 228 503T216 531Q216 548 227 559T256 570Q272 570 283 559T295 531ZM29 316V358H482V316H29ZM295 139Q295 122 284 111T256 99Q239 99 228 110T216 139Q216 155 227 166T256 178Q272 178 283 167T295 139Z"  />
<glyph unicode="&#xF8;" horiz-adv-x="666" d="M333 -12Q288 -12 250 -2T180 29L159 0H108L147 54Q102 94 78 151T54 275Q54 335 73 387T129 479T217 540T333 562Q376 562 413 552T482 522L502 550H553L515 498Q561 459 586 402T612 275Q612 215 592 163T536 72T448 11T333 -12ZM333 37Q383 37 424 55T494 105T539 180T555 275Q555 331 537 377T485 455L210 71Q263 37 333 37ZM111 275Q111 221 128 176T178 98L452 480Q399 513 333 513Q282 513 241 495T171 446T127 370T111 275Z"  />
<glyph unicode="&#xF9;" horiz-adv-x="613" d="M306 -12Q194 -12 138 47T81 210V550H136V212Q136 130 179 84T306 37Q389 37 433 83T477 212V550H532V210Q532 107 475 48T306 -12ZM322 606L150 750H212L366 606H322Z"  />
<glyph unicode="&#xFA;" horiz-adv-x="613" d="M306 -12Q194 -12 138 47T81 210V550H136V212Q136 130 179 84T306 37Q389 37 433 83T477 212V550H532V210Q532 107 475 48T306 -12ZM294 606H250L404 750H466L294 606Z"  />
<glyph unicode="&#xFB;" horiz-adv-x="613" d="M306 -12Q194 -12 138 47T81 210V550H136V212Q136 130 179 84T306 37Q389 37 433 83T477 212V550H532V210Q532 107 475 48T306 -12ZM392 606L306 719L222 606H182L279 750H333L432 606H392Z"  />
<glyph unicode="&#xFC;" horiz-adv-x="613" d="M306 -12Q194 -12 138 47T81 210V550H136V212Q136 130 179 84T306 37Q389 37 433 83T477 212V550H532V210Q532 107 475 48T306 -12ZM445 654Q445 639 434 628T408 617Q393 617 382 628T371 654Q371 669 382 680T408 691Q423 691 434 680T445 654ZM241 654Q241 639 230 628T204 617Q189 617 178 628T167 654Q167 669 178 680T204 691Q219 691 230 680T241 654Z"  />
<glyph unicode="&#xFD;" horiz-adv-x="539" d="M244 0V235L12 550H78L272 284L462 550H527L299 235V0H244ZM257 606H213L367 750H429L257 606Z"  />
<glyph unicode="&#xFE;" horiz-adv-x="509" d="M81 0V550H136V453H299Q343 453 376 440T430 405T463 353T474 290Q474 257 463 228T431 176T376 140T299 127H136V0H81ZM295 176Q357 176 387 208T417 290Q417 339 387 371T295 404H136V176H295Z"  />
<glyph unicode="&#xFF;" horiz-adv-x="539" d="M244 0V235L12 550H78L272 284L462 550H527L299 235V0H244ZM411 654Q411 639 400 628T374 617Q359 617 348 628T337 654Q337 669 348 680T374 691Q389 691 400 680T411 654ZM207 654Q207 639 196 628T170 617Q155 617 144 628T133 654Q133 669 144 680T170 691Q185 691 196 680T207 654Z"  />
<glyph unicode="&#x152;" horiz-adv-x="1115" d="M632 0V139Q613 102 586 74T525 26T455 -2T379 -12Q306 -12 247 14T146 87T81 197T58 333Q58 406 81 469T146 578T247 650T379 677Q417 677 454 668T525 639T585 593T632 528V667H1055V615H690V368H1048V316H690V52H1055V0H632ZM632 446Q600 537 534 581T383 625Q322 625 273 603T190 542T137 450T118 333Q118 270 136 216T189 123T273 62T383 40Q467 40 533 85T632 221V446Z"  />
<glyph unicode="&#x153;" horiz-adv-x="964" d="M539 0V113Q506 50 452 19T328 -12Q265 -12 215 10T129 71T74 162T54 275Q54 335 73 387T128 479T214 540T328 562Q397 562 451 532T539 438V550H908V501H594V307H902V258H594V49H908V0H539ZM539 360Q526 401 505 430T456 477T397 504T334 513Q283 513 242 495T171 446T127 370T111 275Q111 224 126 181T171 105T241 55T334 37Q402 37 457 73T539 191V360Z"  />
<glyph unicode="&#x160;" horiz-adv-x="581" d="M258 728L158 872H198L284 759L368 872H408L312 728H258ZM290 -12Q207 -12 146 18T46 94L83 137Q99 119 120 102T167 71T225 49T292 40Q343 40 376 53T430 85T459 128T467 173Q467 222 438 249T364 293T267 322T171 355T97 408T67 500Q67 541 84 574T131 630T201 665T286 678Q361 678 417 654T512 584L474 542Q438 586 389 606T283 626Q250 626 222 617T172 592T139 553T127 503Q127 471 144 450T189 415T253 391T326 369T400 345T464 309T510 256T527 177Q527 145 516 112T476 51T403 6T290 -12Z"  />
<glyph unicode="&#x161;" horiz-adv-x="499" d="M250 -12Q179 -12 125 13T39 76L73 115Q99 85 145 61T251 36Q292 36 320 45T366 70T392 105T400 146Q400 186 375 207T311 242T228 265T145 291T82 335T56 412Q56 446 71 473T111 520T172 551T246 562Q312 562 360 541T443 483L411 445Q380 481 337 497T246 514Q218 514 194 507T151 486T123 454T113 413Q113 379 138 361T202 330T285 307T368 278T432 230T458 147Q458 115 446 86T409 35T344 1T250 -12ZM226 606L126 750H166L252 637L336 750H376L280 606H226Z"  />
<glyph unicode="&#x178;" horiz-adv-x="618" d="M452 769Q452 754 441 743T415 732Q400 732 389 743T378 769Q378 784 389 795T415 806Q430 806 441 795T452 769ZM248 769Q248 754 237 743T211 732Q196 732 185 743T174 769Q174 784 185 795T211 806Q226 806 237 795T248 769ZM280 0V285L15 667H84L309 339L534 667H603L338 285V0H280Z"  />
<glyph unicode="&#x17D;" horiz-adv-x="581" d="M265 728L165 872H205L291 759L375 872H415L319 728H265ZM50 0V50L452 615H50V667H524V618L122 52H531V0H50Z"  />
<glyph unicode="&#x17E;" horiz-adv-x="513" d="M41 0V43L394 501H41V550H465V506L113 49H472V0H41ZM228 606L128 750H168L254 637L338 750H378L282 606H228Z"  />
<glyph unicode="&#x192;" horiz-adv-x="354" d="M26 -119L102 221H48V262H110L144 412Q160 484 193 522T285 561Q307 561 326 555T364 531L336 490Q321 509 291 509Q252 509 232 481T202 407L169 262H286V221H160L84 -119H26Z"  />
<glyph unicode="&#x2C6;" horiz-adv-x="250" d="M210 556L124 669L40 556H0L97 700H151L250 556H210Z"  />
<glyph unicode="&#x2DC;" horiz-adv-x="307" d="M214 554Q186 554 171 570T144 605T121 640T89 656Q66 656 51 634T35 560H0Q0 588 6 612T24 655T53 683T93 694Q121 694 136 678T163 643T186 608T218 592Q241 592 256 614T272 688H307Q307 660 301 636T284 593T255 565T214 554Z"  />
<glyph unicode="&#x3BC;" horiz-adv-x="540" d="M81 -184V483H133V155Q133 120 141 97T165 59T202 39T250 33Q273 33 296 40T339 58T377 84T407 115V483H459V0H407V71Q392 54 373 39T332 13T284 -5T233 -12Q170 -12 133 13V-184H81Z"  />
<glyph unicode="&#x2013;" horiz-adv-x="593" d="M30 218V266H563V218H30Z"  />
<glyph unicode="&#x2014;" horiz-adv-x="833" d="M30 218V266H803V218H30Z"  />
<glyph unicode="&#x2018;" horiz-adv-x="219" d="M51 541Q51 583 72 619T123 677L152 653Q128 636 112 610T94 560Q94 561 98 561T104 562Q122 562 133 550T145 520Q145 503 133 490T102 477Q82 477 67 493T51 541Z"  />
<glyph unicode="&#x2019;" horiz-adv-x="219" d="M159 613Q159 571 138 535T87 477L58 501Q82 518 98 544T116 594Q116 593 112 593T106 592Q88 592 77 604T65 634Q65 651 77 664T108 677Q128 677 143 661T159 613Z"  />
<glyph unicode="&#x201A;" horiz-adv-x="219" d="M159 14Q159 -28 138 -65T87 -122L58 -98Q82 -81 98 -55T116 -6Q114 -7 112 -7H106Q88 -7 77 5T65 35Q65 52 77 65T108 78Q128 78 143 62T159 14Z"  />
<glyph unicode="&#x201C;" horiz-adv-x="361" d="M60 541Q60 583 81 619T131 677L161 653Q137 636 121 610T102 560Q103 561 107 561T113 562Q130 562 141 550T153 520Q153 503 141 490T111 477Q91 477 76 493T60 541ZM202 541Q202 583 223 619T273 677L303 653Q279 636 263 610T244 560Q245 561 248 561T255 562Q272 562 283 550T295 520Q295 503 283 490T252 477Q232 477 217 493T202 541Z"  />
<glyph unicode="&#x201D;" horiz-adv-x="361" d="M300 613Q300 571 279 535T229 477L199 501Q223 518 239 544T258 594Q257 593 254 593T247 592Q230 592 219 604T207 634Q207 651 219 664T250 677Q270 677 285 661T300 613ZM159 613Q159 571 138 535T87 477L58 501Q82 518 98 544T116 594Q116 593 112 593T106 592Q88 592 77 604T65 634Q65 651 77 664T108 677Q128 677 143 661T159 613Z"  />
<glyph unicode="&#x201E;" horiz-adv-x="361" d="M159 14Q159 -28 138 -65T87 -122L58 -98Q82 -81 98 -55T116 -6Q114 -7 112 -7H106Q88 -7 77 5T65 35Q65 52 77 65T108 78Q128 78 143 62T159 14ZM300 14Q300 -28 279 -65T229 -122L199 -98Q223 -81 239 -55T258 -6Q257 -6 254 -6T247 -7Q230 -7 219 5T207 35Q207 52 219 65T250 78Q270 78 285 62T300 14Z"  />
<glyph unicode="&#x2020;" horiz-adv-x="257" d="M144 539L148 327H109L113 539L24 535V570L113 567L109 677H148L144 567L233 570V535L144 539Z"  />
<glyph unicode="&#x2021;" horiz-adv-x="257" d="M233 535L144 539V318L233 322V287L144 290L148 180H109L113 290L24 287V322L113 318V539L24 535V570L113 567L109 677H148L144 567L233 570V535Z"  />
<glyph unicode="&#x2022;" horiz-adv-x="358" d="M283 242Q283 221 275 203T253 170T220 148T180 140Q159 140 140 148T107 170T85 202T77 242Q77 263 85 282T107 315T140 337T180 345Q201 345 220 337T253 315T275 282T283 242Z"  />
<glyph unicode="&#x2026;" horiz-adv-x="657" d="M154 35Q154 17 141 4T110 -9Q92 -9 79 4T66 35Q66 52 79 65T110 78Q128 78 141 65T154 35ZM373 35Q373 17 360 4T329 -9Q311 -9 298 4T285 35Q285 52 298 65T329 78Q347 78 360 65T373 35ZM592 35Q592 17 579 4T548 -9Q530 -9 517 4T504 35Q504 52 517 65T548 78Q566 78 579 65T592 35Z"  />
<glyph unicode="&#x2030;" horiz-adv-x="867" d="M285 425Q285 396 276 372T249 329T208 301T155 290Q127 290 104 300T63 329T36 371T26 425Q26 454 35 479T62 522T103 551T155 562Q184 562 208 552T249 523T275 479T285 425ZM556 124Q556 95 547 70T520 27T479 -1T427 -12Q398 -12 375 -2T334 27T308 70T298 124Q298 153 307 178T334 221T374 250T427 261Q455 261 479 251T520 222T546 178T556 124ZM122 0H78L460 550H506L122 0ZM244 425Q244 467 220 497T155 528Q116 528 92 498T67 425Q67 383 91 354T155 324Q196 324 220 353T244 425ZM515 124Q515 167 491 196T427 226Q387 226 363 197T339 124Q339 82 363 53T427 23Q467 23 491 52T515 124ZM840 124Q840 95 831 70T804 27T763 -1T711 -12Q683 -12 660 -1T619 28T592 72T582 124Q582 153 591 178T618 221T659 250T711 261Q739 261 763 251T804 222T830 178T840 124ZM800 124Q800 167 776 196T711 226Q671 226 647 197T623 124Q623 82 647 53T711 23Q752 23 776 52T800 124Z"  />
<glyph unicode="&#x2039;" horiz-adv-x="277" d="M190 63L30 243L190 420H247L87 243L247 63H190Z"  />
<glyph unicode="&#x203A;" horiz-adv-x="277" d="M87 63H30L190 243L30 420H87L247 243L87 63Z"  />
<glyph unicode="&#x20AC;" horiz-adv-x="610" d="M143 318Q140 297 140 276Q140 252 143 231H415V194H153Q165 158 186 129T235 80T299 48T373 37Q424 37 469 58T541 117L585 90Q546 42 494 15T373 -12Q322 -12 277 2T195 44T132 109T93 194H35V231H86Q83 252 83 276Q83 287 83 297T85 318H35V356H93Q105 403 131 441T194 506T276 547T373 562Q442 562 494 535T584 460L541 433Q513 471 469 492T373 513Q334 513 299 502T235 471T185 421T152 356H415V318H143Z"  />
<glyph unicode="&#x2122;" horiz-adv-x="454" d="M391 447V629L316 447H308L233 629V447H205V667H248L312 507L376 667H419V447H391ZM107 641V447H79V641H17V667H169V641H107Z"  />


</font>
</defs>
</svg>
